<svg width="15" height="19" viewBox="0 0 15 19" fill="none" xmlns="http://www.w3.org/2000/svg">
<path fill-rule="evenodd" clip-rule="evenodd" d="M7.51605 4.5195e-05C3.37911 -0.0143368 0.0140553 3.40562 0 7.63873V7.66477C0.0684503 9.70351 0.756401 11.6697 1.96809 13.2896C3.32757 15.1473 4.99591 16.7457 6.89679 18.0117C7.23774 18.3135 7.74347 18.3135 8.08442 18.0117C9.35953 17.1694 10.5352 16.1791 11.588 15.0604C13.4288 13.0726 14.9303 10.5293 14.9812 7.77761V7.69081C14.9953 3.4577 11.653 0.0144272 7.51605 4.5195e-05ZM7.68964 9.78074C9.00595 9.78074 10.073 8.71366 10.073 7.39736C10.073 6.08105 9.00595 5.01398 7.68964 5.01398C6.37333 5.01398 5.30626 6.08105 5.30626 7.39736C5.30626 8.71366 6.37333 9.78074 7.68964 9.78074Z" fill="#8CC63F"/>
</svg>
