<svg width="20" height="20" viewBox="0 0 20 20" fill="none" xmlns="http://www.w3.org/2000/svg">
<path d="M11.8444 11.1634L13.9631 12.2209C13.8626 12.7227 13.5912 13.1741 13.1951 13.4982C12.799 13.8222 12.3027 13.9988 11.791 13.9978C10.0325 13.9959 8.34668 13.2965 7.10328 12.0531C5.85989 10.8097 5.16049 9.12384 5.15854 7.36542C5.1584 6.85428 5.33537 6.35888 5.65935 5.96353C5.98332 5.56818 6.43428 5.2973 6.93548 5.19699L7.99298 7.31567L7.09299 8.65505C7.02574 8.75593 6.98442 8.87185 6.97269 8.99252C6.96096 9.1132 6.97918 9.2349 7.02575 9.34685C7.55301 10.6 8.54993 11.5969 9.80307 12.1242C9.91536 12.1728 10.038 12.1927 10.1599 12.1821C10.2818 12.1715 10.3991 12.1307 10.5013 12.0634L11.8444 11.1634ZM19.1603 9.57622C19.1607 11.2302 18.7328 12.8561 17.9184 14.2957C17.1039 15.7353 15.9306 16.9394 14.5127 17.791C13.0948 18.6426 11.4806 19.1126 9.82715 19.1553C8.17371 19.1979 6.5374 18.8118 5.07748 18.0344L1.9409 19.0799C1.68121 19.1665 1.40253 19.1791 1.1361 19.1162C0.86967 19.0533 0.626014 18.9175 0.432443 18.7239C0.238873 18.5304 0.103037 18.2867 0.0401606 18.0203C-0.0227156 17.7538 -0.0101473 17.4752 0.0764567 17.2155L1.12198 14.0789C0.438613 12.7941 0.0569255 11.3705 0.00589302 9.9161C-0.0451394 8.46175 0.235824 7.01488 0.827457 5.68533C1.41909 4.35577 2.30584 3.17847 3.42041 2.24279C4.53497 1.30711 5.84805 0.637643 7.25997 0.285202C8.6719 -0.0672384 10.1456 -0.0933876 11.5691 0.208739C12.9926 0.510866 14.3286 1.13333 15.4757 2.02888C16.6228 2.92443 17.5507 4.06952 18.1892 5.37725C18.8276 6.68498 19.1597 8.12097 19.1603 9.57622ZM15.4756 11.787C15.4757 11.6501 15.4377 11.5159 15.3658 11.3994C15.2938 11.2829 15.1909 11.1887 15.0685 11.1275L12.1207 9.6536C12.0047 9.59578 11.8755 9.56959 11.7461 9.57767C11.6167 9.58576 11.4917 9.62784 11.3838 9.69966L10.0306 10.6024C9.40941 10.2609 8.89822 9.74972 8.55673 9.12853L9.45948 7.77534C9.5313 7.66741 9.57337 7.54244 9.58146 7.41305C9.58954 7.28366 9.56336 7.15443 9.50553 7.0384L8.03167 4.09066C7.97058 3.96729 7.87615 3.8635 7.75909 3.79105C7.64203 3.7186 7.50701 3.68039 7.36935 3.68074C6.39211 3.68074 5.4549 4.06895 4.76389 4.75996C4.07288 5.45097 3.68467 6.38818 3.68467 7.36542C3.68711 9.51459 4.54195 11.575 6.06164 13.0947C7.58133 14.6144 9.64178 15.4693 11.791 15.4717C12.2748 15.4717 12.754 15.3764 13.201 15.1912C13.6481 15.006 14.0543 14.7346 14.3964 14.3925C14.7386 14.0503 15.01 13.6441 15.1951 13.1971C15.3803 12.75 15.4756 12.2709 15.4756 11.787Z" fill="#25488A"/>
</svg>
