<svg width="20" height="20" viewBox="0 0 20 20" fill="none" xmlns="http://www.w3.org/2000/svg">
<path d="M19.1603 9.57905C19.1572 11.9205 18.2982 14.18 16.7448 15.932C15.1915 17.684 13.0512 18.8076 10.727 19.091C10.6752 19.0969 10.6228 19.0917 10.5732 19.0758C10.5236 19.06 10.4779 19.0338 10.4392 18.9989C10.4004 18.9641 10.3695 18.9215 10.3485 18.8738C10.3274 18.8262 10.3167 18.7746 10.317 18.7226V11.7898H12.5278C12.6289 11.7901 12.7289 11.7695 12.8216 11.7295C12.9144 11.6894 12.9979 11.6307 13.067 11.557C13.1361 11.4834 13.1893 11.3962 13.2233 11.3011C13.2574 11.206 13.2715 11.1049 13.2648 11.0041C13.2485 10.8146 13.1611 10.6383 13.0201 10.5106C12.8791 10.383 12.695 10.3134 12.5048 10.316H10.317V8.10518C10.317 7.71428 10.4723 7.3394 10.7487 7.06299C11.0251 6.78659 11.4 6.63131 11.7909 6.63131H13.2648C13.3658 6.63153 13.4658 6.61098 13.5585 6.57093C13.6513 6.53088 13.7348 6.47219 13.8039 6.3985C13.873 6.32481 13.9262 6.2377 13.9603 6.14258C13.9943 6.04746 14.0084 5.94635 14.0017 5.84555C13.9854 5.65573 13.8977 5.47915 13.7563 5.35145C13.615 5.22374 13.4304 5.15441 13.2399 5.15744H11.7909C11.0091 5.15744 10.2594 5.468 9.70654 6.02081C9.15374 6.57362 8.84317 7.32339 8.84317 8.10518V10.316H6.63237C6.53134 10.3158 6.43135 10.3363 6.3386 10.3764C6.24586 10.4164 6.16234 10.4751 6.09323 10.5488C6.02412 10.6225 5.9709 10.7096 5.93687 10.8047C5.90284 10.8998 5.88874 11.0009 5.89543 11.1017C5.91173 11.2916 5.99942 11.4681 6.1408 11.5958C6.28219 11.7235 6.46674 11.7929 6.65724 11.7898H8.84317V18.7244C8.84349 18.7764 8.83279 18.8279 8.8118 18.8754C8.7908 18.923 8.75997 18.9656 8.72134 19.0004C8.68271 19.0352 8.63715 19.0614 8.58765 19.0774C8.53816 19.0933 8.48585 19.0986 8.43417 19.0929C6.04775 18.8022 3.85741 17.6263 2.29668 15.7977C0.735957 13.9692 -0.0813957 11.6213 0.00640633 9.21887C0.19064 4.24456 4.21983 0.200633 9.19782 0.00718769C10.4866 -0.0427341 11.7722 0.167794 12.9778 0.62618C14.1834 1.08457 15.2841 1.78139 16.2141 2.67498C17.1442 3.56857 17.8845 4.64056 18.3907 5.82683C18.8969 7.0131 19.1586 8.28928 19.1603 9.57905Z" fill="#25488A"/>
</svg>
