<svg width="20" height="20" viewBox="0 0 20 20" fill="none" xmlns="http://www.w3.org/2000/svg">
<path d="M12.5279 9.58015C12.5279 10.1632 12.355 10.7331 12.0311 11.2178C11.7072 11.7026 11.2468 12.0804 10.7082 12.3035C10.1696 12.5266 9.57688 12.585 9.00507 12.4712C8.43327 12.3575 7.90803 12.0768 7.49578 11.6645C7.08353 11.2523 6.80279 10.727 6.68905 10.1552C6.57531 9.58342 6.63369 8.99073 6.85679 8.4521C7.0799 7.91347 7.45772 7.4531 7.94247 7.12919C8.42723 6.80529 8.99714 6.63241 9.58015 6.63241C10.3619 6.63241 11.1117 6.94298 11.6645 7.49578C12.2173 8.04859 12.5279 8.79836 12.5279 9.58015ZM19.1603 5.15854V14.0018C19.1588 15.3694 18.6149 16.6807 17.6478 17.6478C16.6807 18.6149 15.3694 19.1588 14.0018 19.1603H5.15854C3.79086 19.1588 2.47962 18.6149 1.51252 17.6478C0.545421 16.6807 0.00146302 15.3694 0 14.0018V5.15854C0.00146302 3.79086 0.545421 2.47962 1.51252 1.51252C2.47962 0.545421 3.79086 0.00146302 5.15854 0H14.0018C15.3694 0.00146302 16.6807 0.545421 17.6478 1.51252C18.6149 2.47962 19.1588 3.79086 19.1603 5.15854ZM14.0018 9.58015C14.0018 8.70564 13.7424 7.85077 13.2566 7.12364C12.7707 6.39651 12.0802 5.82978 11.2722 5.49512C10.4643 5.16046 9.57524 5.07289 8.71754 5.2435C7.85983 5.41411 7.07197 5.83523 6.4536 6.4536C5.83523 7.07197 5.41411 7.85983 5.2435 8.71754C5.07289 9.57524 5.16046 10.4643 5.49512 11.2722C5.82978 12.0802 6.39651 12.7707 7.12364 13.2566C7.85077 13.7424 8.70564 14.0018 9.58015 14.0018C10.7525 14.0005 11.8764 13.5343 12.7054 12.7054C13.5343 11.8764 14.0005 10.7525 14.0018 9.58015ZM16.2126 4.05314C16.2126 3.83451 16.1477 3.62079 16.0263 3.43901C15.9048 3.25723 15.7322 3.11555 15.5302 3.03188C15.3282 2.94822 15.1059 2.92633 14.8915 2.96898C14.6771 3.01163 14.4801 3.11691 14.3255 3.2715C14.1709 3.4261 14.0656 3.62306 14.023 3.83749C13.9803 4.05191 14.0022 4.27417 14.0859 4.47616C14.1696 4.67814 14.3112 4.85079 14.493 4.97225C14.6748 5.09371 14.8885 5.15854 15.1072 5.15854C15.4003 5.15854 15.6815 5.04208 15.8888 4.83478C16.0961 4.62747 16.2126 4.34631 16.2126 4.05314Z" fill="#25488A"/>
</svg>
