<svg width="20" height="20" viewBox="0 0 20 20" fill="none" xmlns="http://www.w3.org/2000/svg">
<path d="M9.58015 0C7.68538 0 5.83315 0.561866 4.25771 1.61455C2.68226 2.66723 1.45435 4.16344 0.72925 5.91398C0.00415093 7.66453 -0.185568 9.59078 0.184084 11.4491C0.553736 13.3075 1.46616 15.0145 2.80596 16.3543C4.14577 17.6941 5.85279 18.6066 7.71116 18.9762C9.56953 19.3459 11.4958 19.1561 13.2463 18.4311C14.9969 17.706 16.4931 16.478 17.5458 14.9026C18.5984 13.3271 19.1603 11.4749 19.1603 9.58015C19.1574 7.04023 18.1471 4.60518 16.3511 2.80919C14.5551 1.0132 12.1201 0.00292561 9.58015 0ZM16.7984 5.89548H13.5145C13.1009 4.37823 12.4039 2.95297 11.4603 1.69495C12.6004 1.96884 13.6678 2.48603 14.5894 3.21106C15.5109 3.93609 16.2648 4.85182 16.7993 5.89548H16.7984ZM17.6864 9.58015C17.6871 10.3277 17.5838 11.0718 17.3797 11.791H13.8323C14.0583 10.3257 14.0583 8.83455 13.8323 7.36934H17.3797C17.5838 8.08851 17.6871 8.83256 17.6864 9.58015ZM9.58015 1.75022C10.6836 2.93164 11.5028 4.34942 11.9752 5.89548H7.18512C7.65702 4.34921 8.47624 2.93132 9.58015 1.75022ZM7.18512 13.2648H11.9752C11.5033 14.8111 10.6841 16.229 9.58015 17.4101C8.47666 16.2287 7.6575 14.8109 7.18512 13.2648ZM6.82586 11.791C6.57285 10.3279 6.57285 8.83236 6.82586 7.36934H12.3418C12.5948 8.83236 12.5948 10.3279 12.3418 11.791H6.82586ZM11.4639 17.4653C12.4076 16.2073 13.1046 14.7821 13.5181 13.2648H16.803C16.2681 14.3089 15.5137 15.2249 14.5914 15.9499C13.6692 16.675 12.6011 17.1919 11.4603 17.4653H11.4639Z" fill="#25488A"/>
</svg>
