<svg width="20" height="20" viewBox="0 0 20 20" fill="none" xmlns="http://www.w3.org/2000/svg">
<path d="M19.1603 5.89548V9.58015C19.1603 9.7756 19.0827 9.96304 18.9445 10.1012C18.8063 10.2394 18.6188 10.3171 18.4234 10.3171C16.8839 10.3207 15.3666 9.9505 14.0018 9.2384V12.8964C14.0018 14.7531 13.2642 16.5338 11.9512 17.8467C10.6383 19.1596 8.85763 19.8972 7.00088 19.8972C5.14413 19.8972 3.36343 19.1596 2.05051 17.8467C0.73759 16.5338 0 14.7531 0 12.8964C0 9.49724 2.47886 6.49239 5.76651 5.90653C5.87257 5.88768 5.98148 5.89231 6.08555 5.92009C6.18963 5.94788 6.28635 5.99814 6.3689 6.06734C6.45146 6.13655 6.51783 6.22301 6.56336 6.32064C6.60889 6.41827 6.63246 6.52469 6.63241 6.63241V10.5649C6.63246 10.7043 6.59292 10.841 6.5184 10.9589C6.44388 11.0768 6.33744 11.1711 6.21144 11.2309C5.91357 11.3721 5.65906 11.5908 5.47446 11.8639C5.28986 12.137 5.18193 12.4547 5.16193 12.7838C5.14194 13.1128 5.21061 13.4412 5.36078 13.7347C5.51095 14.0282 5.73711 14.276 6.01569 14.4523C6.29427 14.6286 6.61504 14.7269 6.94456 14.737C7.27408 14.7471 7.60026 14.6685 7.88909 14.5096C8.17792 14.3507 8.41881 14.1171 8.58663 13.8334C8.75445 13.5496 8.84306 13.226 8.84321 12.8964V0.736935C8.84321 0.541487 8.92086 0.354045 9.05906 0.215843C9.19726 0.0776411 9.3847 0 9.58015 0H13.2648C13.4603 0 13.6477 0.0776411 13.7859 0.215843C13.9241 0.354045 14.0018 0.541487 14.0018 0.736935C14.003 1.90924 14.4692 3.03319 15.2982 3.86214C16.1271 4.69108 17.2511 5.15732 18.4234 5.15854C18.6188 5.15854 18.8063 5.23618 18.9445 5.37439C19.0827 5.51259 19.1603 5.70003 19.1603 5.89548Z" fill="#25488A"/>
</svg>
