<svg width="17" height="17" viewBox="0 0 17 17" fill="none" xmlns="http://www.w3.org/2000/svg">
<path fill-rule="evenodd" clip-rule="evenodd" d="M13.7183 13.7184C12.2005 15.2362 10.1825 16.0721 8.03604 16.0721C6.7792 16.0721 5.57591 15.7901 4.45947 15.234L3.73771 14.8745L0.560174 15.6273L1.22903 12.3804L0.873443 11.6841C0.293869 10.5491 0 9.32168 0 8.03609C0 5.88957 0.835881 3.87158 2.35368 2.35373C3.85792 0.84949 5.90887 0 8.03619 0C10.1827 4.94897e-05 12.2006 0.83593 13.7184 2.35368C15.2362 3.87148 16.0721 5.88947 16.0721 8.03594C16.0721 10.1633 15.2226 12.2143 13.7183 13.7184ZM6.28728 10.0903C5.73559 9.58698 5.31572 9.11103 5.00389 8.66267C4.71341 8.24501 4.51663 7.85122 4.39441 7.48167C4.24396 7.02674 4.20643 6.60843 4.24595 6.22713C4.30612 5.64658 4.80106 5.12255 5.21821 4.7777C5.50259 4.54262 5.93789 4.63954 6.08851 4.97249L6.71734 6.3626C6.80001 6.54536 6.77363 6.75767 6.64861 6.91577L6.32951 7.31928C6.32633 7.3233 6.32322 7.32735 6.32017 7.33144C6.19418 7.50044 6.17944 7.72701 6.28643 7.9091C6.4546 8.19536 6.83988 8.60826 7.27841 9.00381C7.83032 9.50163 8.46659 9.97199 8.86058 10.1278C9.06456 10.2085 9.29841 10.1592 9.45253 10.0057L9.81803 9.64173C9.9612 9.49913 10.1728 9.44465 10.3693 9.49978L11.8639 9.91926C12.222 10.0197 12.3795 10.428 12.18 10.7354C11.986 11.0344 11.7167 11.3772 11.3882 11.6144C11.3654 11.6308 11.3424 11.6467 11.319 11.6621L11.3178 11.6629C11.1704 11.7599 11.0118 11.8345 10.8434 11.8744C10.5045 11.9546 10.1054 11.9823 9.65187 11.9184C9.24855 11.8616 8.80216 11.7323 8.31674 11.503C7.70046 11.212 7.02116 10.7598 6.28728 10.0903Z" fill="#8CC63F"/>
</svg>
