<svg width="21" height="17" viewBox="0 0 21 17" fill="none" xmlns="http://www.w3.org/2000/svg">
<path d="M20.1119 2.71929C20.0251 2.3797 19.8588 2.06561 19.6267 1.80294C19.3946 1.54027 19.1034 1.33655 18.7771 1.20858C15.6193 -0.0110506 10.5934 3.50406e-06 10.3171 3.50406e-06C10.0407 3.50406e-06 5.01484 -0.0110506 1.85708 1.20858C1.53076 1.33655 1.23956 1.54027 1.00748 1.80294C0.775398 2.06561 0.6091 2.3797 0.522302 2.71929C0.28372 3.63862 0 5.31883 0 8.10628C0 10.8937 0.28372 12.5739 0.522302 13.4933C0.60897 13.833 0.77521 14.1473 1.0073 14.4101C1.23938 14.673 1.53066 14.8768 1.85708 15.0049C4.88219 16.172 9.617 16.2126 10.2563 16.2126H10.3779C11.0172 16.2126 15.7547 16.172 18.7771 15.0049C19.1035 14.8768 19.3948 14.673 19.6269 14.4101C19.859 14.1473 20.0252 13.833 20.1119 13.4933C20.3504 12.5721 20.6342 10.8937 20.6342 8.10628C20.6342 5.31883 20.3504 3.63862 20.1119 2.71929ZM13.3192 8.70688L9.6345 11.2862C9.52428 11.3634 9.39501 11.4089 9.26074 11.4179C9.12646 11.4268 8.99229 11.3989 8.87279 11.337C8.75328 11.2751 8.65301 11.1817 8.58284 11.0668C8.51267 10.952 8.47529 10.8201 8.47475 10.6856V5.52701C8.47479 5.3922 8.5118 5.25998 8.58177 5.14475C8.65173 5.02952 8.75197 4.93569 8.87156 4.87347C8.99116 4.81125 9.12553 4.78303 9.26005 4.79187C9.39457 4.80072 9.52408 4.8463 9.6345 4.92365L13.3192 7.50292C13.4161 7.57089 13.4952 7.66121 13.5498 7.76623C13.6045 7.87126 13.633 7.9879 13.633 8.10628C13.633 8.22467 13.6045 8.34131 13.5498 8.44633C13.4952 8.55136 13.4161 8.64168 13.3192 8.70965V8.70688Z" fill="#25488A"/>
</svg>
