<svg width="20" height="20" viewBox="0 0 20 20" fill="none" xmlns="http://www.w3.org/2000/svg">
<path d="M17.6864 0H1.47387C1.08297 0 0.70809 0.155282 0.431686 0.431686C0.155282 0.70809 0 1.08297 0 1.47387V17.6864C0 18.0773 0.155282 18.4522 0.431686 18.7286C0.70809 19.005 1.08297 19.1603 1.47387 19.1603H17.6864C18.0773 19.1603 18.4522 19.005 18.7286 18.7286C19.005 18.4522 19.1603 18.0773 19.1603 17.6864V1.47387C19.1603 1.08297 19.005 0.70809 18.7286 0.431686C18.4522 0.155282 18.0773 0 17.6864 0ZM6.63241 14.0018C6.63241 14.1972 6.55477 14.3846 6.41657 14.5228C6.27837 14.6611 6.09092 14.7387 5.89548 14.7387C5.70003 14.7387 5.51259 14.6611 5.37439 14.5228C5.23618 14.3846 5.15854 14.1972 5.15854 14.0018V8.10628C5.15854 7.91083 5.23618 7.72339 5.37439 7.58519C5.51259 7.44699 5.70003 7.36935 5.89548 7.36935C6.09092 7.36935 6.27837 7.44699 6.41657 7.58519C6.55477 7.72339 6.63241 7.91083 6.63241 8.10628V14.0018ZM5.89548 6.63241C5.67685 6.63241 5.46313 6.56758 5.28135 6.44612C5.09957 6.32465 4.95788 6.15201 4.87422 5.95003C4.79055 5.74804 4.76866 5.52578 4.81131 5.31136C4.85397 5.09693 4.95925 4.89997 5.11384 4.74537C5.26843 4.59078 5.4654 4.4855 5.67982 4.44285C5.89425 4.40019 6.11651 4.42209 6.3185 4.50575C6.52048 4.58942 6.69312 4.7311 6.81458 4.91288C6.93605 5.09466 7.00088 5.30838 7.00088 5.52701C7.00088 5.82018 6.88442 6.10134 6.67711 6.30865C6.46981 6.51595 6.18865 6.63241 5.89548 6.63241ZM14.7387 14.0018C14.7387 14.1972 14.6611 14.3846 14.5228 14.5228C14.3846 14.6611 14.1972 14.7387 14.0018 14.7387C13.8063 14.7387 13.6189 14.6611 13.4807 14.5228C13.3425 14.3846 13.2648 14.1972 13.2648 14.0018V10.6856C13.2648 10.1969 13.0707 9.72833 12.7252 9.38282C12.3797 9.03732 11.9111 8.84321 11.4225 8.84321C10.9339 8.84321 10.4653 9.03732 10.1198 9.38282C9.77425 9.72833 9.58015 10.1969 9.58015 10.6856V14.0018C9.58015 14.1972 9.50251 14.3846 9.36431 14.5228C9.2261 14.6611 9.03866 14.7387 8.84321 14.7387C8.64777 14.7387 8.46033 14.6611 8.32212 14.5228C8.18392 14.3846 8.10628 14.1972 8.10628 14.0018V8.10628C8.10719 7.92577 8.17433 7.75188 8.29495 7.61758C8.41557 7.48329 8.58128 7.39794 8.76065 7.37772C8.94003 7.3575 9.12058 7.40381 9.26807 7.50788C9.41556 7.61195 9.51973 7.76654 9.5608 7.94231C10.0593 7.60413 10.6406 7.40812 11.2421 7.37535C11.8436 7.34258 12.4427 7.47427 12.975 7.75629C13.5073 8.03831 13.9527 8.46 14.2635 8.97609C14.5742 9.49217 14.7385 10.0831 14.7387 10.6856V14.0018Z" fill="#25488A"/>
</svg>
